<svg xmlns="http://www.w3.org/2000/svg" viewBox="0 0 713.7 375.34"><g id="Layer_2" data-name="Layer 2"><g id="Ñëîé_1" data-name="Ñëîé 1"><polygon points="384.88 337.36 391.13 330.73 382.43 329.84 383.88 322.16 376.96 325.65 373.25 318.86 370.09 326 362.42 321.81 363.81 330.81 356.44 332.2 361.31 336.57 355.45 342.1 365.04 343.66 363.93 352.31 369.73 348.94 372.6 355 376.59 347.25 385.37 351.4 383.67 343.52 390.17 342.68 384.88 337.36" style="fill:#fff"/><polygon points="29.43 203.32 35.68 196.69 26.98 195.8 28.43 188.13 21.52 191.62 17.8 184.83 14.64 191.97 6.97 187.77 8.36 196.77 0.99 198.17 5.87 202.53 0 208.07 9.59 209.63 8.48 218.28 14.28 214.91 17.15 220.97 21.14 213.21 29.93 217.37 28.23 209.48 34.72 208.65 29.43 203.32" style="fill:#fff"/><circle cx="227.33" cy="318.86" r="10.17" transform="translate(-42.71 35.26) rotate(-8.11)" style="fill:#fff"/><path d="M323.67,287.35a10.16,10.16,0,1,1-12.91,6.32A10.16,10.16,0,0,1,323.67,287.35Z" style="fill:#fff"/><circle cx="443.93" cy="365.17" r="10.17" transform="translate(-65.71 99.28) rotate(-11.89)" style="fill:#fff"/><path d="M689.63,294.56a10.17,10.17,0,1,1-12.91,6.33A10.16,10.16,0,0,1,689.63,294.56Z" style="fill:#fff"/><circle cx="527.34" cy="187.41" r="10.17" transform="translate(-28.68 251.05) rotate(-26.09)" style="fill:#fff"/><path d="M623.94.55A10.17,10.17,0,1,1,611,6.87,10.18,10.18,0,0,1,623.94.55Z" style="fill:#fff"/><path d="M706.83,209.07a10.16,10.16,0,1,1-12.91,6.32A10.16,10.16,0,0,1,706.83,209.07Z" style="fill:#fff"/><path d="M566.6,56.85a10.17,10.17,0,1,1-12.91,6.32A10.16,10.16,0,0,1,566.6,56.85Z" style="fill:#fff"/><path d="M443.93,367.23a2,2,0,0,1-.76-.15l-70.64-28.24a2.27,2.27,0,0,1-.48-.27l-52.14-39.38L227.8,320.86a2,2,0,0,1-1.47-.2L16.85,204.7a2.06,2.06,0,1,1,2-3.6L227.63,316.68,319.91,295a2.06,2.06,0,0,1,1.71.36l52.69,39.8L444.07,363l240.5-60.52,16.95-84.22a2.06,2.06,0,1,1,4,.81l-17.2,85.5a2.09,2.09,0,0,1-1.52,1.59l-242.4,61A2.14,2.14,0,0,1,443.93,367.23Z" style="fill:#fff"/><path d="M443.93,367.23a1.91,1.91,0,0,1-.87-.2,2,2,0,0,1-1-2.73l83.34-177.62,35.92-120.8a2.21,2.21,0,0,1,.53-.88L619.21,8.7a2.06,2.06,0,1,1,2.88,2.94l-57,55.92L529.31,188c0,.09-.07.19-.11.28L445.79,366.05A2.06,2.06,0,0,1,443.93,367.23Z" style="fill:#fff"/></g></g></svg>