<svg width="568" height="339" viewBox="0 0 568 339" fill="none" xmlns="http://www.w3.org/2000/svg">
<g opacity="0.2" clip-path="url(#clip0_56_1845)">
<path d="M562.889 82.878L568 77.4638L560.874 76.737L562.062 70.4736L556.403 73.3236L553.356 67.7788L550.776 73.6094L544.486 70.1796L545.624 77.5373L539.588 78.6724L543.585 82.241L538.777 86.7569L546.632 88.0308L545.723 95.0945L550.473 92.3425L552.823 97.2912L556.091 90.9624L563.291 94.3514L561.89 87.9083L567.214 87.2305L562.889 82.878Z" fill="#1E2022"/>
<path d="M245.232 126.019L250.35 120.605L243.225 119.879L244.413 113.615L238.745 116.457L235.698 110.912L233.118 116.751L226.836 113.321L227.975 120.671L221.93 121.806L225.927 125.374L221.12 129.89L228.974 131.164L228.073 138.228L232.815 135.476L235.166 140.433L238.434 134.096L245.633 137.485L244.241 131.05L249.556 130.372L245.232 126.019Z" fill="#1E2022"/>
<path d="M130.167 72.36C129.258 73.7274 127.963 74.7955 126.446 75.4294C124.928 76.0632 123.257 76.2343 121.642 75.9211C120.027 75.6078 118.541 74.8243 117.373 73.6695C116.204 72.5146 115.405 71.0404 115.077 69.433C114.748 67.8256 114.905 66.1572 115.528 64.6386C116.15 63.1201 117.21 61.8196 118.573 60.9015C119.937 59.9834 121.542 59.4888 123.188 59.4803C124.833 59.4719 126.444 59.9499 127.817 60.8539C129.656 62.0707 130.937 63.9654 131.378 66.1224C131.818 68.2794 131.383 70.5226 130.167 72.36Z" fill="#1E2022"/>
<path d="M15.2669 12.8862C14.3573 14.2532 13.0616 15.3207 11.5437 15.9537C10.0258 16.5867 8.35369 16.7568 6.73881 16.4426C5.12393 16.1283 3.63873 15.3438 2.47093 14.1882C1.30313 13.0325 0.505156 11.5576 0.177856 9.94989C-0.149444 8.34217 0.00862654 6.67379 0.632089 5.15561C1.25555 3.63744 2.31642 2.33763 3.68061 1.42046C5.0448 0.503296 6.65107 0.00994465 8.2964 0.00276504C9.94174 -0.00441457 11.5523 0.4749 12.9245 1.38013C13.8374 1.98108 14.6224 2.75578 15.2344 3.65982C15.8464 4.56385 16.2735 5.57943 16.4911 6.64836C16.7087 7.71728 16.7126 8.81851 16.5025 9.88893C16.2924 10.9593 15.8725 11.9779 15.2669 12.8862Z" fill="#1E2022"/>
<path d="M202.687 338.981C207.286 338.86 210.915 335.044 210.793 330.459C210.671 325.874 206.844 322.256 202.245 322.377C197.647 322.499 194.018 326.315 194.14 330.9C194.262 335.485 198.089 339.103 202.687 338.981Z" fill="#1E2022"/>
<path d="M235.731 127.391C235.463 127.39 235.199 127.326 234.961 127.204L122.452 69.2731L7.55138 9.7993C7.33917 9.70755 7.14814 9.57326 6.99017 9.40479C6.8322 9.23632 6.71067 9.03726 6.63311 8.81999C6.55555 8.60271 6.52364 8.37185 6.53934 8.14175C6.55504 7.91165 6.61803 7.68723 6.72439 7.48243C6.83075 7.27763 6.97821 7.09682 7.15761 6.95124C7.33702 6.80566 7.54452 6.69841 7.76725 6.63616C7.98997 6.57392 8.22316 6.55799 8.45231 6.58939C8.68147 6.62079 8.9017 6.69883 9.09933 6.81867L124 66.2843L236.034 123.937L553.167 80.8445C553.602 80.8032 554.035 80.9311 554.377 81.2014C554.718 81.4717 554.942 81.8634 555 82.2944C555.058 82.7253 554.947 83.1621 554.689 83.5129C554.432 83.8638 554.048 84.1015 553.618 84.1763L235.96 127.334C235.886 127.362 235.809 127.381 235.731 127.391Z" fill="#1E2022"/>
<path d="M202.454 332.361H202.176C201.957 332.326 201.747 332.249 201.559 332.133C201.37 332.017 201.207 331.865 201.077 331.686C200.948 331.507 200.855 331.304 200.805 331.089C200.754 330.874 200.747 330.652 200.783 330.434L234.068 125.415C234.163 124.998 234.413 124.632 234.768 124.393C235.124 124.153 235.557 124.057 235.981 124.125C236.404 124.193 236.786 124.418 237.049 124.757C237.311 125.095 237.434 125.52 237.394 125.946L204.108 330.965C204.051 331.358 203.851 331.717 203.546 331.975C203.241 332.232 202.853 332.369 202.454 332.361Z" fill="#1E2022"/>
</g>
<defs>
<clipPath id="clip0_56_1845">
<rect width="568" height="339" fill="white"/>
</clipPath>
</defs>
</svg>
