<svg xmlns="http://www.w3.org/2000/svg" viewBox="0 0 693.51 415.13"><g id="Layer_2" data-name="Layer 2"><g id="Ñëîé_1" data-name="Ñëîé 1"><polygon points="687.27 101.49 693.51 94.86 684.81 93.97 686.26 86.3 679.35 89.79 675.63 83 672.48 90.14 664.8 85.94 666.19 94.95 658.82 96.34 663.7 100.71 657.83 106.24 667.42 107.8 666.31 116.45 672.11 113.08 674.98 119.14 678.97 111.39 687.76 115.54 686.05 107.65 692.55 106.82 687.27 101.49" style="fill:#fff"/><polygon points="299.42 154.32 305.67 147.69 296.97 146.8 298.42 139.13 291.5 142.61 287.78 135.82 284.63 142.97 276.96 138.77 278.35 147.77 270.97 149.16 275.85 153.53 269.98 159.06 279.57 160.62 278.47 169.27 284.26 165.9 287.13 171.97 291.12 164.21 299.91 168.36 298.21 160.48 304.7 159.65 299.42 154.32" style="fill:#fff"/><path d="M158.93,88.61a10.16,10.16,0,1,1-2.87-14.09A10.18,10.18,0,0,1,158.93,88.61Z" style="fill:#fff"/><path d="M18.64,15.78A10.16,10.16,0,1,1,15.78,1.69,10.15,10.15,0,0,1,18.64,15.78Z" style="fill:#fff"/><circle cx="247.18" cy="404.96" r="10.17" transform="translate(-10.63 6.68) rotate(-1.52)" style="fill:#fff"/><path d="M287.82,156a2.07,2.07,0,0,1-.94-.23L149.51,84.83,9.22,12a2.06,2.06,0,1,1,1.89-3.65L151.4,81.17l136.79,70.6L675.4,99a2.06,2.06,0,0,1,.55,4.08L288.1,155.93A1.27,1.27,0,0,1,287.82,156Z" style="fill:#fff"/><path d="M247.19,407l-.34,0a2.05,2.05,0,0,1-1.7-2.36l40.64-251.06a2.06,2.06,0,0,1,4.06.65L249.21,405.29A2,2,0,0,1,247.19,407Z" style="fill:#fff"/></g></g></svg>