<svg width="405" height="340" viewBox="0 0 405 340" fill="none" xmlns="http://www.w3.org/2000/svg">
<g opacity="0.2" clip-path="url(#clip0_56_1834)">
<path d="M297.57 41.441L302.317 36.4126L295.709 35.7376L296.811 29.9203L291.563 32.5597L288.738 27.4099L286.338 32.8327L280.513 29.6473L281.569 36.4732L275.972 37.5275L279.678 40.8418L275.22 45.036L282.503 46.2192L281.66 52.7796L286.065 50.2237L288.244 54.8274L291.274 48.942L297.942 52.0895L296.651 46.113L301.587 45.4835L297.57 41.441Z" fill="#1E2022"/>
<path d="M22.3502 14.0311L27.0967 9.00266L20.4896 8.32765L21.5908 2.50284L16.3431 5.14979L13.518 0L11.1182 5.41524L5.29327 2.22981L6.34889 9.06333L0.751842 10.1176L4.45789 13.4319L0 17.6261L7.283 18.8093L6.44002 25.3697L10.8448 22.8138L13.0243 27.4099L16.0545 21.532L22.7299 24.6796L21.4389 18.7031L26.3676 18.066L22.3502 14.0311Z" fill="#1E2022"/>
<path d="M115.996 84.9906C120.262 84.9906 123.72 81.5372 123.72 77.2773C123.72 73.0173 120.262 69.564 115.996 69.564C111.731 69.564 108.273 73.0173 108.273 77.2773C108.273 81.5372 111.731 84.9906 115.996 84.9906Z" fill="#1E2022"/>
<path d="M265.803 336.549C264.96 337.819 263.758 338.81 262.351 339.398C260.943 339.986 259.393 340.144 257.895 339.852C256.398 339.56 255.021 338.831 253.938 337.758C252.855 336.685 252.115 335.315 251.812 333.822C251.508 332.329 251.655 330.779 252.233 329.369C252.811 327.959 253.795 326.752 255.06 325.9C256.325 325.048 257.814 324.59 259.34 324.583C260.865 324.577 262.359 325.022 263.631 325.863C264.477 326.421 265.204 327.141 265.771 327.981C266.338 328.821 266.733 329.764 266.935 330.756C267.137 331.749 267.141 332.771 266.946 333.765C266.752 334.759 266.364 335.705 265.803 336.549Z" fill="#1E2022"/>
<path d="M55.1351 238.096C54.2933 239.37 53.092 240.366 51.6834 240.957C50.2747 241.549 48.722 241.71 47.2217 241.42C45.7214 241.13 44.3409 240.402 43.255 239.328C42.1691 238.255 41.4265 236.883 41.1213 235.388C40.8161 233.893 40.9619 232.34 41.5404 230.928C42.1188 229.515 43.1038 228.306 44.3708 227.452C45.6378 226.599 47.1297 226.14 48.6579 226.134C50.186 226.128 51.6817 226.575 52.9555 227.418C53.8008 227.976 54.5277 228.695 55.0947 229.534C55.6617 230.372 56.0577 231.315 56.2601 232.306C56.4625 233.298 56.4673 234.32 56.2743 235.313C56.0813 236.307 55.6942 237.252 55.1351 238.096Z" fill="#1E2022"/>
<path d="M403.443 225.521C403.175 225.522 402.912 225.453 402.68 225.32C402.448 225.186 402.256 224.994 402.122 224.763L288.024 42.8669L116.315 78.8016C115.924 78.8884 115.515 78.8176 115.176 78.6044L12.7281 15.0322C12.5469 14.9274 12.3886 14.7874 12.2625 14.6203C12.1365 14.4533 12.0453 14.2627 11.9944 14.0598C11.9435 13.8569 11.9339 13.6459 11.9662 13.4393C11.9985 13.2326 12.072 13.0345 12.1823 12.8568C12.2927 12.679 12.4376 12.5252 12.6086 12.4044C12.7796 12.2837 12.9731 12.1984 13.1777 12.1537C13.3823 12.1091 13.5938 12.1059 13.7997 12.1443C14.0055 12.1828 14.2015 12.2621 14.3761 12.3777L116.293 75.6238L288.449 39.5904C288.761 39.526 289.086 39.5584 289.379 39.6831C289.672 39.8078 289.92 40.0189 290.09 40.2882L404.78 223.132C404.998 223.483 405.068 223.905 404.976 224.307C404.883 224.709 404.635 225.058 404.286 225.279C404.035 225.441 403.742 225.525 403.443 225.521Z" fill="#1E2022"/>
<path d="M259.34 333.849H259.181C258.976 333.829 258.778 333.769 258.597 333.673C258.417 333.576 258.257 333.445 258.127 333.286C257.997 333.127 257.9 332.945 257.841 332.749C257.782 332.552 257.762 332.346 257.783 332.143L286.839 44.6948L49.6748 235.063C49.3502 235.308 48.9426 235.418 48.5385 235.368C48.1344 235.318 47.7657 235.113 47.5106 234.796C47.2555 234.479 47.1342 234.075 47.1724 233.671C47.2107 233.266 47.4055 232.892 47.7154 232.628L287.827 39.9015C288.067 39.7087 288.359 39.5911 288.666 39.5635C288.972 39.5358 289.281 39.5992 289.552 39.7459C289.823 39.8925 290.044 40.1158 290.189 40.3877C290.333 40.6596 290.394 40.968 290.363 41.2742L260.889 332.446C260.852 332.83 260.672 333.187 260.386 333.446C260.099 333.705 259.727 333.849 259.34 333.849Z" fill="#1E2022"/>
<path d="M411.331 229.637C410.487 230.907 409.286 231.898 407.879 232.486C406.471 233.074 404.921 233.232 403.423 232.94C401.926 232.649 400.549 231.92 399.466 230.847C398.383 229.773 397.643 228.403 397.34 226.91C397.036 225.417 397.183 223.867 397.761 222.457C398.339 221.047 399.323 219.84 400.588 218.988C401.852 218.137 403.342 217.678 404.868 217.672C406.393 217.665 407.887 218.11 409.159 218.951C410.005 219.51 410.732 220.23 411.299 221.069C411.866 221.909 412.261 222.852 412.463 223.844C412.665 224.837 412.669 225.859 412.474 226.853C412.28 227.847 411.892 228.793 411.331 229.637Z" fill="#1E2022"/>
</g>
<defs>
<clipPath id="clip0_56_1834">
<rect width="405" height="340" fill="white"/>
</clipPath>
</defs>
</svg>
