<svg xmlns="http://www.w3.org/2000/svg" viewBox="0 0 533.29 448.29"><g id="Layer_2" data-name="Layer 2"><g id="Ñëîé_1" data-name="Ñëîé 1"><polygon points="391.83 54.64 398.08 48.01 389.38 47.12 390.83 39.45 383.92 42.93 380.2 36.14 377.04 43.29 369.37 39.09 370.76 48.09 363.39 49.48 368.27 53.85 362.4 59.38 371.99 60.94 370.88 69.59 376.68 66.22 379.55 72.29 383.54 64.53 392.32 68.68 390.62 60.8 397.12 59.97 391.83 54.64" style="fill:#fff"/><polygon points="29.43 18.5 35.68 11.87 26.98 10.98 28.43 3.3 21.52 6.79 17.8 0 14.64 7.14 6.97 2.94 8.36 11.95 0.99 13.34 5.87 17.71 0 23.24 9.59 24.8 8.48 33.45 14.28 30.08 17.15 36.14 21.14 28.39 29.93 32.54 28.23 24.66 34.72 23.82 29.43 18.5" style="fill:#fff"/><circle cx="152.74" cy="101.89" r="10.17" style="fill:#fff"/><path d="M350,443.74a10.16,10.16,0,1,1-2.86-14.09A10.16,10.16,0,0,1,350,443.74Z" style="fill:#fff"/><path d="M72.6,313.93a10.17,10.17,0,1,1-2.87-14.08A10.16,10.16,0,0,1,72.6,313.93Z" style="fill:#fff"/><path d="M531.24,297.35a2,2,0,0,1-1.74-1L379.26,56.52,153.16,103.9a2,2,0,0,1-1.5-.26L16.76,19.82a2.06,2.06,0,1,1,2.17-3.5l134.2,83.39L379.82,52.2a2.06,2.06,0,0,1,2.16.92L533,294.2a2.06,2.06,0,0,1-.65,2.83A2,2,0,0,1,531.24,297.35Z" style="fill:#fff"/><path d="M341.49,440.18h-.21a2.05,2.05,0,0,1-1.84-2.25l38.26-379-312.29,251a2.06,2.06,0,0,1-2.58-3.21L379,52.61a2.06,2.06,0,0,1,3.34,1.81L343.53,438.33A2.05,2.05,0,0,1,341.49,440.18Z" style="fill:#fff"/></g></g></svg>