<svg xmlns="http://www.w3.org/2000/svg" viewBox="0 0 566.24 522.39"><g id="Layer_2" data-name="Layer 2"><g id="Ñëîé_1" data-name="Ñëîé 1"><polygon points="560 18.5 566.24 11.86 557.54 10.98 558.99 3.3 552.08 6.79 548.36 0 545.21 7.14 537.53 2.94 538.92 11.95 531.55 13.34 536.43 17.71 530.56 23.24 540.15 24.8 539.04 33.45 544.84 30.08 547.71 36.14 551.7 28.39 560.49 32.54 558.78 24.66 565.28 23.82 560 18.5" style="fill:#fff"/><polygon points="141.67 374.67 147.92 368.04 139.22 367.15 140.67 359.48 133.76 362.97 130.04 356.18 126.88 363.32 119.21 359.12 120.6 368.12 113.23 369.52 118.11 373.88 112.24 379.42 121.83 380.98 120.72 389.63 126.52 386.26 129.39 392.32 133.38 384.56 142.16 388.71 140.46 380.83 146.96 380 141.67 374.67" style="fill:#fff"/><circle cx="10.17" cy="512.22" r="10.17" transform="translate(-433.4 255.86) rotate(-58.84)" style="fill:#fff"/><circle cx="36.93" cy="464.96" r="10.17" transform="translate(-203.24 65.12) rotate(-26.45)" style="fill:#fff"/><path d="M110.23,428.35a10.17,10.17,0,1,1-12.3-7.44A10.16,10.16,0,0,1,110.23,428.35Z" style="fill:#fff"/><circle cx="53.96" cy="384.42" r="10.17" transform="translate(-302.91 231.66) rotate(-58.84)" style="fill:#fff"/><circle cx="192.62" cy="322.21" r="10.17" transform="translate(-125.01 122.14) rotate(-26.92)" style="fill:#fff"/><path d="M332.82,197.79a10.16,10.16,0,1,1-12.3-7.44A10.17,10.17,0,0,1,332.82,197.79Z" style="fill:#fff"/><circle cx="375.08" cy="175.2" r="10.17" transform="matrix(0.95, -0.3, 0.3, 0.95, -35.46, 121.91)" style="fill:#fff"/><path d="M505.22,204.16a10.16,10.16,0,1,1-12.91,6.32A10.16,10.16,0,0,1,505.22,204.16Z" style="fill:#fff"/><circle cx="523.82" cy="120.29" r="10.17" transform="translate(0.97 244.72) rotate(-26.32)" style="fill:#fff"/><circle cx="469.95" cy="86.23" r="10.17" transform="translate(9.97 215.5) rotate(-26.09)" style="fill:#fff"/><path d="M480,355.83a10.16,10.16,0,1,1-12.3-7.44A10.15,10.15,0,0,1,480,355.83Z" style="fill:#fff"/><circle cx="87.67" cy="350.36" r="10.17" transform="matrix(0.52, -0.86, 0.86, 0.52, -257.5, 244.07)" style="fill:#fff"/><path d="M10.17,514.28a2.06,2.06,0,0,1-1.79-3.07l26.6-47,17-80.23a2.16,2.16,0,0,1,.55-1l33.72-34.06a2,2,0,0,1,2.47-.34l42.41,23.89a2.05,2.05,0,0,1,.81,2.75l-29.72,56.53a2,2,0,0,1-.8.83L41.26,466.74a2.06,2.06,0,0,1-2.67-.55L12,513.24A2.08,2.08,0,0,1,10.17,514.28ZM55.84,385.43,39.43,463.05l59.39-33.76,28.51-54.23L88,352.92Z" style="fill:#fff"/><path d="M130.08,376.3a2.05,2.05,0,0,1-1.31-3.63l62.54-52L321.54,198.72a2.06,2.06,0,0,1,.52-.35l51.84-24.89,94.65-88.75,78.5-68.21a2.05,2.05,0,0,1,3.35,2L525.82,120.77l-21.89,93.48L472.11,358.7a2.06,2.06,0,1,1-4-.88l31.83-144.49,21.9-93.51,23.08-96L471.3,87.78,376.48,176.7a2,2,0,0,1-.51.35l-51.85,24.89L194,323.71,131.4,375.83A2.05,2.05,0,0,1,130.08,376.3Z" style="fill:#fff"/></g></g></svg>