<svg xmlns="http://www.w3.org/2000/svg" viewBox="0 0 503.93 459.47"><g id="Layer_2" data-name="Layer 2"><g id="Ñëîé_1" data-name="Ñëîé 1"><polygon points="135.47 385.8 141.72 379.17 133.02 378.28 134.47 370.6 127.56 374.09 123.84 367.3 120.68 374.44 113.01 370.24 114.4 379.25 107.03 380.64 111.91 385.01 106.04 390.54 115.63 392.1 114.52 400.75 120.32 397.38 123.19 403.44 127.18 395.69 135.96 399.84 134.26 391.95 140.76 391.12 135.47 385.8" style="fill:#fff"/><polygon points="408.71 173.52 416.81 164.92 405.52 163.77 407.4 153.82 398.44 158.34 393.62 149.54 389.52 158.8 379.57 153.35 381.38 165.03 371.81 166.84 378.14 172.5 370.53 179.68 382.97 181.7 381.53 192.92 389.05 188.55 392.77 196.41 397.95 186.35 409.34 191.74 407.14 181.51 415.56 180.43 408.71 173.52" style="fill:#fff"/><path d="M13.46,439.68A10.17,10.17,0,1,1,.55,446,10.18,10.18,0,0,1,13.46,439.68Z" style="fill:#fff"/><circle cx="393.67" cy="353.38" r="10.17" transform="translate(-114.76 207.25) rotate(-25.88)" style="fill:#fff"/><circle cx="493.76" cy="32.96" r="10.17" transform="translate(48.55 248.99) rotate(-29.7)" style="fill:#fff"/><path d="M272.72,393.83a10.16,10.16,0,1,1-12.91,6.32A10.16,10.16,0,0,1,272.72,393.83Z" style="fill:#fff"/><circle cx="156.13" cy="60.21" r="10.17" transform="translate(-10.54 75.1) rotate(-26.19)" style="fill:#fff"/><path d="M265.77.55a10.17,10.17,0,1,1-12.91,6.32A10.16,10.16,0,0,1,265.77.55Z" style="fill:#fff"/><path d="M393.67,175a2,2,0,0,1-1.6-.77L261.89,12.72,157,62.07a2.06,2.06,0,1,1-1.75-3.72l106.34-50a2.05,2.05,0,0,1,2.48.57l129.49,160.7L492.09,31.76a2.05,2.05,0,1,1,3.34,2.39l-100.09,140a2.06,2.06,0,0,1-1.61.86Z" style="fill:#fff"/><path d="M10.17,451.36a2.06,2.06,0,0,1-1-3.85l113.71-63.93a2.05,2.05,0,0,1,1.26-.25l145,18L391.61,352V173a2.06,2.06,0,0,1,4.12,0V353.38a2.05,2.05,0,0,1-1.29,1.91L270.2,405.35a2,2,0,0,1-1,.13l-144.87-18L11.18,451.09A2.07,2.07,0,0,1,10.17,451.36Z" style="fill:#fff"/></g></g></svg>