<svg width="443" height="404" viewBox="0 0 443 404" fill="currentColor" xmlns="http://www.w3.org/2000/svg">
<g clip-path="url(#clip0_50_1673)">
<path d="M119.09 339.224L124.585 333.394L116.937 332.612L118.211 325.859L112.137 328.928L108.867 322.957L106.089 329.235L99.346 325.542L100.568 333.465L94.089 334.687L98.379 338.529L93.2187 343.392L101.649 344.763L100.673 352.369L105.772 349.406L108.295 354.734L111.803 347.92L119.521 351.569L118.027 344.631L123.741 343.902L119.09 339.224Z" fill="currentColor"/>
<path d="M359.293 152.572L366.414 145.01L356.489 143.999L358.141 135.25L350.265 139.224L346.028 131.487L342.423 139.629L333.676 134.837L335.267 145.107L326.855 146.698L332.419 151.675L325.729 157.988L336.665 159.764L335.399 169.63L342.01 165.787L345.28 172.698L349.834 163.853L359.847 168.592L357.913 159.597L365.315 158.647L359.293 152.572Z" fill="currentColor"/>
<path d="M11.8326 386.599C13.5061 387.172 14.9722 388.228 16.0455 389.634C17.1187 391.04 17.7509 392.733 17.862 394.499C17.9731 396.264 17.5581 398.023 16.6695 399.553C15.781 401.082 14.4588 402.314 12.8702 403.092C11.2817 403.869 9.49814 404.159 7.74529 403.922C5.99245 403.686 4.34905 402.935 3.02302 401.764C1.69698 400.594 0.747908 399.056 0.295864 397.346C-0.15618 395.635 -0.0908796 393.829 0.483505 392.156C1.2549 389.916 2.88261 388.074 5.00995 387.032C7.13728 385.99 9.5907 385.835 11.8326 386.599Z" fill="currentColor"/>
<path d="M349.978 318.743C354.421 316.588 356.275 311.238 354.12 306.795C351.964 302.351 346.616 300.497 342.173 302.653C337.731 304.808 335.877 310.158 338.032 314.601C340.187 319.045 345.536 320.899 349.978 318.743Z" fill="currentColor"/>
<path d="M438.503 36.7681C442.792 34.3212 444.286 28.86 441.839 24.5701C439.393 20.2802 433.933 18.7862 429.644 21.2331C425.355 23.68 423.861 29.1412 426.308 33.4311C428.754 37.721 434.214 39.215 438.503 36.7681Z" fill="currentColor"/>
<path d="M239.746 346.284C241.416 346.858 242.879 347.914 243.95 349.319C245.021 350.724 245.651 352.414 245.761 354.178C245.871 355.941 245.456 357.697 244.568 359.224C243.681 360.751 242.36 361.981 240.774 362.758C239.188 363.535 237.407 363.823 235.656 363.588C233.906 363.352 232.264 362.603 230.94 361.435C229.615 360.266 228.666 358.731 228.214 357.024C227.761 355.316 227.825 353.513 228.396 351.841C228.776 350.731 229.372 349.706 230.148 348.826C230.924 347.946 231.866 347.227 232.92 346.711C233.974 346.195 235.119 345.891 236.29 345.818C237.461 345.745 238.636 345.904 239.746 346.284Z" fill="currentColor"/>
<path d="M141.202 60.9747C145.633 58.795 147.458 53.4355 145.279 49.0039C143.1 44.5722 137.741 42.7467 133.311 44.9263C128.88 47.106 127.055 52.4655 129.234 56.8971C131.413 61.3288 136.772 63.1543 141.202 60.9747Z" fill="currentColor"/>
<path d="M233.636 0.483606C235.309 1.05611 236.775 2.11223 237.849 3.51836C238.922 4.92449 239.554 6.61743 239.665 8.38299C239.776 10.1486 239.361 11.9074 238.473 13.437C237.584 14.9666 236.262 16.1983 234.674 16.9761C233.085 17.7539 231.301 18.043 229.549 17.8067C227.796 17.5705 226.152 16.8195 224.826 15.6488C223.5 14.4781 222.551 12.9404 222.099 11.2301C221.647 9.51978 221.712 7.71379 222.287 6.04062C222.667 4.93013 223.262 3.90542 224.038 3.02506C224.814 2.1447 225.756 1.42594 226.81 0.909871C227.864 0.393799 229.009 0.0905259 230.181 0.0173851C231.352 -0.0557558 232.526 0.102669 233.636 0.483606Z" fill="currentColor"/>
<path d="M346.072 153.873C345.801 153.876 345.533 153.817 345.289 153.699C345.045 153.582 344.831 153.409 344.665 153.196L230.225 11.1844L138.017 54.5765C137.8 54.6966 137.561 54.7709 137.314 54.7947C137.068 54.8186 136.819 54.7915 136.583 54.7153C136.347 54.639 136.129 54.5151 135.943 54.3513C135.757 54.1875 135.607 53.9872 135.501 53.7629C135.396 53.5385 135.338 53.2949 135.33 53.0472C135.322 52.7994 135.366 52.5527 135.457 52.3223C135.549 52.092 135.687 51.8829 135.863 51.708C136.038 51.5331 136.248 51.3962 136.479 51.3056L229.961 7.34194C230.328 7.16762 230.743 7.12227 231.138 7.21324C231.534 7.30421 231.888 7.52616 232.141 7.84313L345.975 149.142L432.592 27.9257C432.73 27.7329 432.904 27.5691 433.105 27.4438C433.307 27.3184 433.531 27.234 433.764 27.1952C433.998 27.1564 434.237 27.1641 434.468 27.2178C434.699 27.2715 434.917 27.3701 435.11 27.5081C435.303 27.6461 435.467 27.8207 435.592 28.022C435.717 28.2232 435.802 28.4472 435.841 28.6812C435.879 28.9151 435.872 29.1543 435.818 29.3853C435.764 29.6163 435.666 29.8344 435.528 30.0272L347.54 153.126C347.378 153.352 347.166 153.538 346.92 153.669C346.675 153.8 346.402 153.873 346.124 153.882L346.072 153.873Z" fill="currentColor"/>
<path d="M8.94034 396.869C8.54225 396.865 8.15649 396.73 7.84274 396.485C7.52898 396.24 7.30471 395.899 7.20463 395.513C7.10455 395.128 7.13422 394.72 7.28907 394.353C7.44392 393.987 7.71531 393.681 8.06125 393.484L108.023 337.272C108.359 337.082 108.747 337.005 109.13 337.052L236.598 352.879L344.261 309.504V152.114C344.261 151.634 344.451 151.173 344.791 150.834C345.131 150.494 345.591 150.303 346.072 150.303C346.552 150.303 347.012 150.494 347.352 150.834C347.692 151.173 347.882 151.634 347.882 152.114V310.718C347.883 311.079 347.776 311.433 347.574 311.732C347.372 312.032 347.084 312.263 346.748 312.397L237.53 356.414C237.252 356.526 236.949 356.566 236.651 356.528L109.297 340.701L9.82822 396.632C9.55745 396.785 9.25174 396.867 8.94034 396.869Z" fill="currentColor"/>
</g>
<defs>
<clipPath id="clip0_50_1673">
<rect width="443" height="404" fill="currentColor"/>
</clipPath>
</defs>
</svg>
