<svg width="549" height="268" viewBox="0 0 549 268" fill="currentColor" xmlns="http://www.w3.org/2000/svg">
<g clip-path="url(#clip0_50_1631)">
<path d="M523.971 94.4476C528.585 94.4476 532.325 90.7078 532.325 86.0945C532.325 81.4811 528.585 77.7413 523.971 77.7413C519.357 77.7413 515.617 81.4811 515.617 86.0945C515.617 90.7078 519.357 94.4476 523.971 94.4476Z" fill="currentColor"/>
<path d="M468.649 106.134C471.911 102.872 471.911 97.5828 468.649 94.3207C465.387 91.0586 460.097 91.0586 456.835 94.3207C453.572 97.5828 453.572 102.872 456.835 106.134C460.097 109.396 465.387 109.396 468.649 106.134Z" fill="currentColor"/>
<path d="M436.739 163.664C437.478 159.11 434.386 154.82 429.832 154.08C425.278 153.341 420.986 156.434 420.247 160.987C419.508 165.541 422.601 169.832 427.155 170.571C431.709 171.31 436 168.218 436.739 163.664Z" fill="currentColor"/>
<path d="M270.906 135.129C275.52 135.129 279.26 131.39 279.26 126.776C279.26 122.163 275.52 118.423 270.906 118.423C266.293 118.423 262.552 122.163 262.552 126.776C262.552 131.39 266.293 135.129 270.906 135.129Z" fill="currentColor"/>
<path d="M214.796 145.38C215.856 140.89 213.075 136.391 208.585 135.331C204.094 134.271 199.595 137.052 198.535 141.542C197.475 146.032 200.256 150.531 204.747 151.591C209.237 152.651 213.737 149.87 214.796 145.38Z" fill="currentColor"/>
<path d="M59.7192 41.8084C60.4585 37.2547 57.3659 32.9639 52.8118 32.2248C48.2577 31.4856 43.9665 34.5779 43.2273 39.1316C42.4881 43.6854 45.5806 47.9761 50.1348 48.7153C54.6889 49.4545 58.98 46.3622 59.7192 41.8084Z" fill="currentColor"/>
<path d="M89.5847 16.7064C94.1985 16.7064 97.9386 12.9665 97.9386 8.35318C97.9386 3.73985 94.1985 0 89.5847 0C84.971 0 81.2308 3.73985 81.2308 8.35318C81.2308 12.9665 84.971 16.7064 89.5847 16.7064Z" fill="currentColor"/>
<path d="M143.971 18.8419C148.585 18.8419 152.325 15.102 152.325 10.4887C152.325 5.87538 148.585 2.13553 143.971 2.13553C139.358 2.13553 135.617 5.87538 135.617 10.4887C135.617 15.102 139.358 18.8419 143.971 18.8419Z" fill="currentColor"/>
<path d="M186.99 31.4811C191.253 29.7157 193.277 24.8293 191.511 20.5672C189.746 16.305 184.859 14.281 180.596 16.0464C176.334 17.8119 174.31 22.6982 176.075 26.9604C177.841 31.2226 182.728 33.2466 186.99 31.4811Z" fill="currentColor"/>
<path d="M177.546 195.472C178.606 190.982 175.825 186.483 171.335 185.423C166.844 184.364 162.345 187.144 161.285 191.634C160.225 196.124 163.006 200.623 167.497 201.683C171.987 202.743 176.486 199.962 177.546 195.472Z" fill="currentColor"/>
<path d="M34.5287 198.907C35.5885 194.417 32.8075 189.918 28.3172 188.858C23.8268 187.798 19.3275 190.579 18.2677 195.069C17.2078 199.559 19.9888 204.058 24.4792 205.118C28.9696 206.177 33.4689 203.397 34.5287 198.907Z" fill="currentColor"/>
<path d="M455.376 253.424C458.638 250.161 458.638 244.873 455.376 241.61C452.114 238.348 446.824 238.348 443.562 241.61C440.299 244.873 440.299 250.161 443.562 253.424C446.824 256.686 452.114 256.686 455.376 253.424Z" fill="currentColor"/>
<path d="M543.874 197.281L549 191.828L541.854 191.097L543.045 184.797L537.369 187.663L534.313 182.086L531.725 187.951L525.417 184.501L526.559 191.901L520.505 193.043L524.513 196.632L519.692 201.175L527.569 202.456L526.657 209.561L531.422 206.793L533.779 211.77L537.056 205.405L544.277 208.813L542.88 202.333L548.211 201.651L543.874 197.281Z" fill="currentColor"/>
<path d="M357.608 133.618L362.742 128.172L355.595 127.441L356.786 121.142L351.11 124L348.055 118.423L345.459 124.287L339.159 120.846L340.3 128.238L334.246 129.38L338.255 132.969L333.433 137.511L341.311 138.793L340.399 145.897L345.163 143.129L347.521 148.107L350.798 141.741L358.01 145.15L356.614 138.678L361.953 137.988L357.608 133.618Z" fill="currentColor"/>
<path d="M110.966 253.503L116.092 248.057L108.946 247.326L110.137 241.027L104.461 243.893L101.405 238.308L98.8175 244.181L92.509 240.731L93.6508 248.123L87.5968 249.273L91.6054 252.854L86.7836 257.396L94.6611 258.678L93.7493 265.791L98.5136 263.023L100.871 268L104.149 261.626L111.361 265.035L109.972 258.563L115.304 257.881L110.966 253.503Z" fill="currentColor"/>
<path d="M24.1746 109.634L29.3085 104.189L22.1621 103.466L23.3531 97.1581L17.6771 100.025L14.6214 94.4476L12.0257 100.312L5.72534 96.8624L6.86712 104.263L0.813212 105.405L4.82177 108.994L0 113.536L7.87747 114.817L6.96569 121.922L11.73 119.154L14.0875 124.131L17.3649 117.766L24.5853 121.175L23.1889 114.694L28.5199 114.012L24.1746 109.634Z" fill="currentColor"/>
<path d="M101.438 254.842C101.073 254.845 100.718 254.726 100.428 254.505L25.3821 198.349C25.2024 198.214 25.0516 198.044 24.9387 197.849C24.8259 197.654 24.7532 197.439 24.7249 197.216L12.9786 109.511C12.9378 109.161 13.0036 108.806 13.1675 108.493L49.9838 39.6632C50.0846 39.4743 50.2213 39.3069 50.3863 39.1704L88.4922 7.05544C88.819 6.79024 89.2297 6.65042 89.6505 6.66119L144.037 8.80493C144.196 8.80824 144.354 8.83594 144.505 8.88707L184.328 22.1766C184.549 22.238 184.756 22.3439 184.935 22.4879C185.114 22.6318 185.262 22.8107 185.37 23.0136C185.478 23.2166 185.543 23.4394 185.562 23.6684C185.581 23.8974 185.553 24.1279 185.48 24.3457C185.406 24.5636 185.29 24.7642 185.136 24.9354C184.983 25.1067 184.797 25.2449 184.588 25.3416C184.38 25.4384 184.154 25.4917 183.924 25.4983C183.694 25.5048 183.466 25.4646 183.252 25.3799L143.659 12.1807L90.1679 10.078L52.8095 41.5442L16.4285 109.61L27.9778 196.066L101.356 250.982L168.171 192.419L205.357 142.464C205.583 142.154 205.912 141.933 206.285 141.84L270.52 125.142C270.705 125.092 270.897 125.076 271.087 125.092L347.964 131.556L462.315 98.6037L523.634 84.4517C524.055 84.389 524.484 84.487 524.836 84.7261C525.187 84.9652 525.436 85.3279 525.532 85.7421C525.628 86.1562 525.565 86.5915 525.355 86.9612C525.145 87.3309 524.804 87.6079 524.398 87.7372L463.12 101.848L348.556 134.867C348.359 134.927 348.152 134.946 347.948 134.924L271.071 128.485L207.698 144.961L170.774 194.579C170.699 194.673 170.617 194.76 170.528 194.842L102.555 254.423C102.246 254.694 101.849 254.843 101.438 254.842Z" fill="currentColor"/>
<path d="M449.468 249.207C449.228 249.211 448.991 249.162 448.773 249.064C448.554 248.966 448.36 248.822 448.203 248.641L346.823 134.39C346.575 134.109 346.428 133.753 346.405 133.379C346.381 133.004 346.483 132.633 346.693 132.323C346.904 132.013 347.212 131.781 347.568 131.665C347.924 131.548 348.309 131.554 348.663 131.68L429.055 160.723L534.872 195.326C535.093 195.386 535.301 195.491 535.481 195.633C535.661 195.776 535.811 195.953 535.92 196.156C536.029 196.358 536.096 196.58 536.117 196.809C536.137 197.038 536.111 197.268 536.039 197.487C535.968 197.705 535.853 197.906 535.701 198.079C535.549 198.251 535.363 198.391 535.156 198.489C534.948 198.588 534.723 198.643 534.493 198.651C534.263 198.659 534.034 198.621 533.82 198.538L427.963 163.918L353.755 137.109L450.725 246.407C450.939 246.65 451.078 246.95 451.127 247.27C451.175 247.591 451.131 247.919 450.998 248.215C450.866 248.511 450.651 248.762 450.38 248.94C450.109 249.117 449.792 249.213 449.468 249.216V249.207Z" fill="currentColor"/>
</g>
<defs>
<clipPath id="clip0_50_1631">
<rect width="549" height="268" fill="currentColor"/>
</clipPath>
</defs>
</svg>
