<svg xmlns="http://www.w3.org/2000/svg" viewBox="0 0 668.35 326.29"><g id="Layer_2" data-name="Layer 2"><g id="Ñëîé_1" data-name="Ñëîé 1"><circle cx="637.88" cy="104.82" r="10.17" style="fill:#fff"/><circle cx="563.34" cy="122.03" r="10.17" transform="translate(78.71 434.08) rotate(-45)" style="fill:#fff"/><circle cx="521.63" cy="197.61" r="10.17" transform="translate(243.01 680.86) rotate(-80.78)" style="fill:#fff"/><circle cx="329.8" cy="154.35" r="10.17" style="fill:#fff"/><circle cx="251.6" cy="174.68" r="10.17" transform="translate(23.79 379.41) rotate(-76.72)" style="fill:#fff"/><circle cx="62.66" cy="49.26" r="10.17" transform="translate(4 103.23) rotate(-80.78)" style="fill:#fff"/><circle cx="109.06" cy="10.17" r="10.17" style="fill:#fff"/><circle cx="175.27" cy="12.77" r="10.17" style="fill:#fff"/><circle cx="223.75" cy="28.93" r="10.17" transform="translate(5.96 87.83) rotate(-22.5)" style="fill:#fff"/><circle cx="206.25" cy="235.67" r="10.17" transform="translate(-70.5 382.25) rotate(-76.72)" style="fill:#fff"/><circle cx="32.13" cy="239.84" r="10.17" transform="translate(-208.67 216.01) rotate(-76.72)" style="fill:#fff"/><circle cx="547.18" cy="301.35" r="10.17" transform="translate(-52.82 475.18) rotate(-45)" style="fill:#fff"/><polygon points="662.11 240.19 668.35 233.55 659.65 232.66 661.1 224.99 654.19 228.48 650.47 221.69 647.32 228.83 639.64 224.63 641.03 233.64 633.66 235.03 638.54 239.4 632.67 244.93 642.26 246.49 641.15 255.14 646.95 251.77 649.82 257.83 653.81 250.08 662.6 254.23 660.9 246.34 667.39 245.51 662.11 240.19" style="fill:#fff"/><polygon points="435.35 162.68 441.6 156.05 432.9 155.16 434.35 147.49 427.44 150.97 423.72 144.18 420.56 151.32 412.89 147.13 414.28 156.13 406.91 157.52 411.79 161.89 405.92 167.42 415.51 168.98 414.4 177.63 420.2 174.26 423.07 180.32 427.06 172.57 435.84 176.72 434.14 168.84 440.64 168 435.35 162.68" style="fill:#fff"/><polygon points="135.09 308.64 141.33 302.01 132.63 301.12 134.08 293.45 127.17 296.94 123.45 290.14 120.3 297.29 112.62 293.09 114.01 302.09 106.64 303.49 111.52 307.85 105.65 313.38 115.24 314.94 114.13 323.6 119.93 320.23 122.8 326.29 126.79 318.53 135.57 322.68 133.88 314.8 140.37 313.97 135.09 308.64" style="fill:#fff"/><polygon points="29.43 133.48 35.68 126.85 26.98 125.97 28.43 118.29 21.52 121.78 17.8 114.99 14.64 122.13 6.97 117.93 8.36 126.94 0.99 128.33 5.87 132.7 0 138.23 9.59 139.79 8.48 148.44 14.28 145.07 17.15 151.13 21.14 143.38 29.93 147.53 28.23 139.64 34.72 138.81 29.43 133.48" style="fill:#fff"/><path d="M123.49,310.27a2,2,0,0,1-1.23-.41L30.9,241.49a2.05,2.05,0,0,1-.8-1.38L15.8,133.33a2.14,2.14,0,0,1,.23-1.24l44.82-83.8a2,2,0,0,1,.49-.6l46.39-39.1a2.15,2.15,0,0,1,1.41-.48l66.21,2.61a1.9,1.9,0,0,1,.57.1L224.4,27a2.06,2.06,0,1,1-1.31,3.9l-48.2-16.07-65.12-2.56L64.29,50.58,20,133.45,34.06,238.71l89.33,66.86,81.34-71.3L250,173.45a2,2,0,0,1,1.13-.76l78.2-20.33a2,2,0,0,1,.69-.06l93.59,7.87,139.21-40.12,74.65-17.23a2.06,2.06,0,0,1,.93,4L563.8,124l-139.47,40.2a1.85,1.85,0,0,1-.74.07L330,156.43l-77.15,20.06L207.9,236.9a3,3,0,0,1-.3.32l-82.75,72.54A2.06,2.06,0,0,1,123.49,310.27Z" style="fill:#fff"/><path d="M547.18,303.41a2,2,0,0,1-1.54-.69L422.22,163.62a2.06,2.06,0,0,1,2.24-3.3l97.87,35.36,128.82,42.13a2.06,2.06,0,1,1-1.28,3.91L521,199.57l-90.34-32.64L548.71,300a2.06,2.06,0,0,1-1.53,3.42Z" style="fill:#fff"/></g></g></svg>