<svg xmlns="http://www.w3.org/2000/svg" viewBox="0 0 238.5 723.35"><g id="Layer_2" data-name="Layer 2"><g id="Ñëîé_1" data-name="Ñëîé 1"><polygon points="160.02 257.11 166.27 250.47 157.57 249.59 159.02 241.91 152.11 245.4 148.39 238.61 145.23 245.75 137.56 241.55 138.95 250.56 131.58 251.95 136.46 256.32 130.59 261.85 140.18 263.41 139.07 272.06 144.87 268.69 147.74 274.75 151.73 267 160.51 271.15 158.81 263.26 165.31 262.43 160.02 257.11" style="fill:#fff"/><polygon points="66.71 97.07 72.96 90.44 64.26 89.55 65.71 81.88 58.8 85.36 55.08 78.57 51.92 85.72 44.25 81.52 45.64 90.52 38.27 91.91 43.15 96.28 37.28 101.81 46.87 103.37 45.76 112.02 51.56 108.65 54.42 114.72 58.42 106.96 67.2 111.11 65.5 103.23 72 102.39 66.71 97.07" style="fill:#fff"/><polygon points="59.39 705.7 65.64 699.07 56.93 698.18 58.38 690.51 51.47 694 47.75 687.2 44.6 694.35 36.92 690.15 38.31 699.15 30.94 700.55 35.82 704.91 29.95 710.44 39.54 712 38.44 720.65 44.23 717.28 47.1 723.35 51.09 715.59 59.88 719.74 58.18 711.86 64.67 711.03 59.39 705.7" style="fill:#fff"/><path d="M236.81,714.87a10.17,10.17,0,1,1-2.87-14.09A10.17,10.17,0,0,1,236.81,714.87Z" style="fill:#fff"/><circle cx="127.72" cy="167.6" r="10.17" transform="translate(-74.05 106.84) rotate(-35.93)" style="fill:#fff"/><path d="M126,108.05A10.16,10.16,0,1,1,123.16,94,10.17,10.17,0,0,1,126,108.05Z" style="fill:#fff"/><circle cx="94.62" cy="10.17" r="10.17" transform="translate(-0.53 11.59) rotate(-6.99)" style="fill:#fff"/><path d="M18.64,183.38a10.16,10.16,0,1,1-2.86-14.09A10.15,10.15,0,0,1,18.64,183.38Z" style="fill:#fff"/><path d="M228.33,711.32a2,2,0,0,1-2-1.7L146.41,257l-20.69-89-10.2-65.31L94,16.37,57,97.5,12,178.76a2.06,2.06,0,0,1-3.6-2l45-81.12L92.75,9.31a2.05,2.05,0,0,1,3.86.36l22.94,92.27,10.2,65.34,20.68,88.94L230.35,708.9a2,2,0,0,1-1.66,2.38A1.47,1.47,0,0,1,228.33,711.32Z" style="fill:#fff"/><path d="M47.79,707.33a1.77,1.77,0,0,1-.45-.05,2,2,0,0,1-1.55-2.45l100.63-448.6a2.06,2.06,0,0,1,4,.9L49.8,705.73A2.06,2.06,0,0,1,47.79,707.33Z" style="fill:#fff"/></g></g></svg>