<svg width="239" height="726" viewBox="0 0 239 726" fill="currentColor" xmlns="http://www.w3.org/2000/svg">
<g opacity="0.2" clip-path="url(#clip0_56_1800)">
<path d="M160.02 257.821L166.27 251.163L157.57 250.28L159.02 242.579L152.11 246.078L148.39 239.27L145.23 246.429L137.56 242.218L138.95 251.253L131.58 252.647L136.46 257.029L130.59 262.574L140.18 264.138L139.07 272.812L144.87 269.433L147.74 275.51L151.73 267.738L160.51 271.9L158.81 263.988L165.31 263.156L160.02 257.821Z" fill="currentColor"/>
<path d="M66.71 97.3384L72.96 90.6901L64.26 89.7976L65.71 82.1064L58.8 85.596L55.08 78.7872L51.92 85.957L44.25 81.7454L45.64 90.7703L38.27 92.1641L43.15 96.5462L37.28 102.091L46.87 103.656L45.76 112.33L51.56 108.95L54.42 115.037L58.42 107.256L67.2 111.417L65.5 103.515L72 102.673L66.71 97.3384Z" fill="currentColor"/>
<path d="M59.39 707.651L65.64 701.003L56.93 700.11L58.38 692.419L51.47 695.919L47.75 689.1L44.6 696.27L36.92 692.058L38.31 701.083L30.94 702.487L35.82 706.859L29.95 712.404L39.54 713.969L38.44 722.643L44.23 719.263L47.1 725.35L51.09 717.569L59.88 721.73L58.18 713.828L64.67 712.996L59.39 707.651Z" fill="currentColor"/>
<path d="M236.81 716.847C235.7 718.529 234.118 719.844 232.263 720.625C230.409 721.406 228.365 721.617 226.39 721.233C224.415 720.849 222.598 719.886 221.169 718.466C219.74 717.047 218.763 715.234 218.361 713.257C217.96 711.28 218.152 709.229 218.913 707.362C219.675 705.495 220.971 703.896 222.639 702.768C224.306 701.64 226.27 701.033 228.282 701.024C230.293 701.015 232.263 701.604 233.94 702.718C236.189 704.21 237.754 706.537 238.292 709.186C238.83 711.836 238.297 714.591 236.81 716.847Z" fill="currentColor"/>
<path d="M133.684 176.327C138.232 173.022 139.247 166.646 135.951 162.085C132.656 157.524 126.297 156.507 121.749 159.811C117.201 163.116 116.186 169.493 119.481 174.053C122.777 178.614 129.136 179.632 133.684 176.327Z" fill="currentColor"/>
<path d="M126 108.349C124.892 110.032 123.31 111.347 121.455 112.128C119.601 112.909 117.557 113.121 115.582 112.736C113.608 112.351 111.791 111.387 110.364 109.966C108.936 108.545 107.961 106.731 107.563 104.754C107.164 102.776 107.36 100.725 108.125 98.8598C108.89 96.9943 110.19 95.3986 111.861 94.2748C113.531 93.1509 115.497 92.5496 117.508 92.5469C119.52 92.5443 121.487 93.1405 123.16 94.2599C125.392 95.7565 126.944 98.0778 127.476 100.717C128.008 103.357 127.477 106.1 126 108.349Z" fill="currentColor"/>
<path d="M95.862 20.3199C101.437 19.6345 105.402 14.5469 104.719 8.95652C104.035 3.36612 98.9617 -0.610152 93.3867 0.0752731C87.8117 0.760698 83.8464 5.84826 84.53 11.4387C85.2135 17.0291 90.287 21.0053 95.862 20.3199Z" fill="currentColor"/>
<path d="M18.64 183.887C17.5294 185.566 15.9475 186.876 14.0941 187.654C12.2408 188.431 10.1992 188.64 8.22752 188.254C6.2558 187.868 4.44242 186.905 3.01658 185.486C1.59073 184.067 0.616424 182.256 0.216801 180.281C-0.182822 178.307 0.0101776 176.258 0.771406 174.394C1.53263 172.53 2.82792 170.934 4.49355 169.808C6.15918 168.681 8.12039 168.076 10.1293 168.067C12.1382 168.058 14.1046 168.646 15.78 169.758C16.8946 170.496 17.8531 171.447 18.6004 172.557C19.3476 173.668 19.8691 174.915 20.1348 176.227C20.4005 177.54 20.4052 178.892 20.1487 180.206C19.8922 181.521 19.3795 182.772 18.64 183.887Z" fill="currentColor"/>
<path d="M228.33 713.287C227.848 713.292 227.38 713.123 227.012 712.809C226.645 712.496 226.402 712.06 226.33 711.582L146.41 257.711L125.72 168.464L115.52 102.974L94 16.4152L57 97.7695L12 179.254C11.7262 179.716 11.2836 180.053 10.7662 180.193C10.2487 180.333 9.69723 180.266 9.22872 180.005C8.76021 179.744 8.41159 179.31 8.25686 178.795C8.10213 178.281 8.15348 177.726 8.40001 177.249L53.4 95.9044L92.75 9.33569C92.9258 8.94567 93.2186 8.62039 93.5876 8.40526C93.9566 8.19012 94.3834 8.09585 94.8084 8.13559C95.2334 8.17534 95.6354 8.34712 95.9584 8.62697C96.2814 8.90683 96.5092 9.28079 96.61 9.69669L119.55 102.222L129.75 167.742L150.43 256.928L230.35 710.86C230.405 711.127 230.405 711.402 230.35 711.668C230.295 711.935 230.187 712.188 230.031 712.411C229.876 712.634 229.677 712.823 229.446 712.967C229.216 713.111 228.958 713.206 228.69 713.247C228.572 713.275 228.451 713.288 228.33 713.287Z" fill="currentColor"/>
<path d="M47.79 709.286C47.6385 709.288 47.4872 709.272 47.34 709.236C47.074 709.183 46.8216 709.076 46.598 708.922C46.3744 708.768 46.1843 708.57 46.0393 708.341C45.8943 708.111 45.7975 707.854 45.7546 707.585C45.7118 707.317 45.7238 707.043 45.79 706.779L146.42 256.938C146.581 256.452 146.916 256.042 147.361 255.79C147.806 255.538 148.329 255.46 148.828 255.573C149.326 255.685 149.766 255.98 150.06 256.399C150.354 256.818 150.483 257.332 150.42 257.841L49.8 707.681C49.6958 708.138 49.4401 708.545 49.075 708.836C48.7098 709.128 48.2567 709.286 47.79 709.286Z" fill="currentColor"/>
</g>
<defs>
<clipPath id="clip0_56_1800">
<rect width="238.5" height="725.35" fill="currentColor"/>
</clipPath>
</defs>
</svg>